<svg xmlns="http://www.w3.org/2000/svg" viewBox="0 0 100 100">
  <defs>
    <!-- Premium vibrant gradient for modern PFAS app -->
    <linearGradient id="pfasGrad" x1="0%" y1="0%" x2="100%" y2="100%">
      <stop offset="0%" stop-color="#0ea5e9" />  <!-- sky-500 -->
      <stop offset="100%" stop-color="#2563eb" /> <!-- blue-600 -->
    </linearGradient>
    <filter id="shadow" x="-20%" y="-20%" width="140%" height="140%">
      <feDropShadow dx="0" dy="6" stdDeviation="6" flood-color="#1d4ed8" flood-opacity="0.3"/>
    </filter>
  </defs>

  <!-- Glowing Premium Droplet Container -->
  <path d="M50 12 C50 12 20 38 20 62 C20 78.5685 33.4315 92 50 92 C66.5685 92 80 78.5685 80 62 C80 38 50 12 50 12 Z" fill="url(#pfasGrad)" filter="url(#shadow)"/>
  
  <!-- Modern Crisp 'P' Letter Form -->
  <path d="M42 40 h10.5 c6 0 10.5 4.5 10.5 10.5 C63 56.5 58.5 61 52.5 61 h-4.5 v11 h-6 V40z m6 15 h4.5 c2.8 0 4.5-2 4.5-4.5 S55.3 46 52.5 46 H48 v9z" fill="#ffffff" />
</svg>
